<?xml version="1.0" encoding="UTF-8"?>
<svg id="Layer_2" data-name="Layer 2" xmlns="http://www.w3.org/2000/svg" viewBox="0 0 178.99 143.72">
  <defs>
    <style>
      .cls-1 {
        fill: #e46643;
      }
    </style>
  </defs>
  <g id="Layer_1-2" data-name="Layer 1">
    <g>
      <path d="m152.14,143.72c-10.66,0-16.64-4.99-19.78-9.17-3.39-4.51-5.26-10.5-5.26-16.85,0-6.73,2.5-15.05,4.51-21.74.43-1.42.83-2.75,1.16-3.94l18.53-65.44c.39-1.42.35-2.67-.12-3.29-.33-.44-.83-.51-1.1-.51-1.35,0-2.65,1.52-3.39,3.96l-25.91,85.6c-3.29,10.95-9.41,31.38-27.86,31.38-12.68,0-20.4-10.33-28.73-26.99l-19.01-37.7c-4.99-9.98-9.42-26.36-6.9-42.45l1.48-9.36c.29-1.83-.27-2.48-.48-2.73-.94-1.1-3.12-1.81-5.56-1.81-2.84,0-7.6,1.2-7.6,9.24,0,3.08,1.63,9.37,3.09,12.93l22.64,55.61c5.29,12.96,5.13,25.15-.44,33.43-3.01,4.48-8.99,9.83-20.31,9.83C0,143.72,0,108.31,0,91.3v-34.6C0,42.67,0,0,37.01,0c17.09,0,29.64,9.4,37.3,27.94l26.57,64.46c.65,1.61,1.25,2.54,1.69,3.07.23-1.36.37-3.96-.32-8.54l-4.27-29.22c-2.55-17.6.93-32.49,10.07-43.06C116.25,5.17,128.15.16,142.46.16c29.94,0,36.05,22,36.19,57.48l.33,54.6c.09,10.31-2.7,18.4-8.29,24.05-4.75,4.79-11.34,7.43-18.55,7.43Z"/>
      <path class="cls-1" d="m171.98,112.29c.16,18.7-10.66,24.44-19.84,24.44-13.78,0-18.04-10.66-18.04-19.02,0-7.05,3.61-17.38,5.41-23.78l18.53-65.44c3.77-13.61-13.61-18.37-18.04-3.77l-25.91,85.61c-4.92,16.4-10.17,26.4-21.16,26.4-7.54,0-13.61-5.41-22.47-23.12l-19.02-37.72c-4.92-9.84-8.36-24.6-6.23-38.21l1.48-9.35c1.31-8.36-5.41-12.63-12.96-12.63-9.18,0-14.6,6.89-14.6,16.24,0,4.59,2.13,11.97,3.61,15.58l22.63,55.6c6.89,16.89,3.44,33.62-14.27,33.62-21.48,0-24.11-21.65-24.11-45.43v-34.6C7,19.79,17.99,7,37.01,7c12.96,0,23.78,6.56,30.83,23.62l26.57,64.45c2.46,6.07,5.74,8.04,8.86,8.04,5.25,0,7.71-5.25,5.9-17.22l-4.26-29.19c-4.43-30.5,11.64-49.53,37.56-49.53,20.66,0,29.03,10.82,29.19,50.51l.33,54.61Z"/>
    </g>
  </g>
</svg>